# xmcd
#
# Track frame offsets:
#	150
#	23745
#	45332
#	125350
#	188337
#	215895
#	236682
#
# Disc length: 4137 seconds
#
# Revision: 1
# Processed by: cddbd v1.5.1PL0 Copyright (c) Steve Scherf et al.
# Submitted via: CDex 1.50Beta5
#
DISCID=55102707
DTITLE=武井宏之 - Shaman King 恐山ル・ヴォワール〜Au Revoir〜
DYEAR=2002
DGENRE=Pop
TTITLE0=Bob/Bob Love
TTITLE1=ハオ（高山みなみ）/陰陽の約
TTITLE2=武井宏之/あたしの中に
TTITLE3=武井宏之/探し続けた答え
TTITLE4=武井宏之/エピローグ
TTITLE5=武井宏之/マタムネから〜恐山ル・ヴォワール
TTITLE6=麻倉 葉（佐藤ゆうこ）/魂魄重ねて
EXTD=
EXTT0=
EXTT1=
EXTT2=
EXTT3=
EXTT4=
EXTT5=
EXTT6=
PLAYORDER=
